<mxfile host="app.diagrams.net" agent="Mozilla/5.0 (Macintosh; Intel Mac OS X 10_15_7) AppleWebKit/605.1.15 (KHTML, like Gecko) Version/17.0 Safari/605.1.15" version="26.1.0">
  <diagram name="Page-1" id="ZH9heVdE4g21uPMSk4vr">
    <mxGraphModel dx="1207" dy="747" grid="1" gridSize="10" guides="1" tooltips="1" connect="1" arrows="1" fold="1" page="1" pageScale="1" pageWidth="850" pageHeight="1100" math="0" shadow="0">
      <root>
        <mxCell id="0" />
        <mxCell id="1" parent="0" />
        <mxCell id="k-cLo1pYmpTZzjUPSEY7-9" style="rounded=0;orthogonalLoop=1;jettySize=auto;html=1;dashed=1;" parent="1" source="k-cLo1pYmpTZzjUPSEY7-1" target="k-cLo1pYmpTZzjUPSEY7-2" edge="1">
          <mxGeometry relative="1" as="geometry" />
        </mxCell>
        <mxCell id="k-cLo1pYmpTZzjUPSEY7-1" value="Award Points for Win" style="ellipse;whiteSpace=wrap;html=1;" parent="1" vertex="1">
          <mxGeometry x="450" y="290" width="140" height="70" as="geometry" />
        </mxCell>
        <mxCell id="k-cLo1pYmpTZzjUPSEY7-2" value="Award Experience Points Base" style="ellipse;whiteSpace=wrap;html=1;" parent="1" vertex="1">
          <mxGeometry x="170" y="250" width="140" height="70" as="geometry" />
        </mxCell>
        <mxCell id="k-cLo1pYmpTZzjUPSEY7-11" style="rounded=0;orthogonalLoop=1;jettySize=auto;html=1;dashed=1;" parent="1" source="k-cLo1pYmpTZzjUPSEY7-3" target="k-cLo1pYmpTZzjUPSEY7-2" edge="1">
          <mxGeometry relative="1" as="geometry" />
        </mxCell>
        <mxCell id="k-cLo1pYmpTZzjUPSEY7-3" value="Award Points for Long Game" style="ellipse;whiteSpace=wrap;html=1;" parent="1" vertex="1">
          <mxGeometry x="335" y="70" width="140" height="70" as="geometry" />
        </mxCell>
        <mxCell id="k-cLo1pYmpTZzjUPSEY7-4" value="Award Points for Winning Quick Game" style="ellipse;whiteSpace=wrap;html=1;" parent="1" vertex="1">
          <mxGeometry x="390" y="180" width="140" height="70" as="geometry" />
        </mxCell>
        <mxCell id="k-cLo1pYmpTZzjUPSEY7-5" value="Increase Level" style="ellipse;whiteSpace=wrap;html=1;" parent="1" vertex="1">
          <mxGeometry x="210" y="380" width="140" height="70" as="geometry" />
        </mxCell>
        <mxCell id="k-cLo1pYmpTZzjUPSEY7-7" style="rounded=0;orthogonalLoop=1;jettySize=auto;html=1;exitX=0.5;exitY=0.5;exitDx=0;exitDy=0;exitPerimeter=0;entryX=0;entryY=0.5;entryDx=0;entryDy=0;" parent="1" source="k-cLo1pYmpTZzjUPSEY7-6" target="k-cLo1pYmpTZzjUPSEY7-2" edge="1">
          <mxGeometry relative="1" as="geometry" />
        </mxCell>
        <mxCell id="k-cLo1pYmpTZzjUPSEY7-8" style="rounded=0;orthogonalLoop=1;jettySize=auto;html=1;exitX=0.5;exitY=0.5;exitDx=0;exitDy=0;exitPerimeter=0;" parent="1" source="k-cLo1pYmpTZzjUPSEY7-6" target="k-cLo1pYmpTZzjUPSEY7-5" edge="1">
          <mxGeometry relative="1" as="geometry" />
        </mxCell>
        <mxCell id="k-cLo1pYmpTZzjUPSEY7-6" value="Game Platform" style="shape=umlActor;verticalLabelPosition=bottom;verticalAlign=top;html=1;" parent="1" vertex="1">
          <mxGeometry x="30" y="305" width="30" height="60" as="geometry" />
        </mxCell>
        <mxCell id="k-cLo1pYmpTZzjUPSEY7-10" style="rounded=0;orthogonalLoop=1;jettySize=auto;html=1;entryX=1;entryY=0;entryDx=0;entryDy=0;dashed=1;" parent="1" source="k-cLo1pYmpTZzjUPSEY7-4" target="k-cLo1pYmpTZzjUPSEY7-2" edge="1">
          <mxGeometry relative="1" as="geometry" />
        </mxCell>
        <mxCell id="k-cLo1pYmpTZzjUPSEY7-14" value="&amp;lt;&amp;lt;extends&amp;gt;&amp;gt;" style="text;html=1;align=center;verticalAlign=middle;whiteSpace=wrap;rounded=0;rotation=-40;fontSize=7;" parent="1" vertex="1">
          <mxGeometry x="310" y="170" width="40" height="10" as="geometry" />
        </mxCell>
        <mxCell id="k-cLo1pYmpTZzjUPSEY7-15" value="&amp;lt;&amp;lt;extends&amp;gt;&amp;gt;" style="text;html=1;align=center;verticalAlign=middle;whiteSpace=wrap;rounded=0;rotation=-15;fontSize=7;" parent="1" vertex="1">
          <mxGeometry x="330" y="230" width="40" height="10" as="geometry" />
        </mxCell>
        <mxCell id="k-cLo1pYmpTZzjUPSEY7-16" value="&amp;lt;&amp;lt;extends&amp;gt;&amp;gt;" style="text;html=1;align=center;verticalAlign=middle;whiteSpace=wrap;rounded=0;rotation=10;fontSize=7;" parent="1" vertex="1">
          <mxGeometry x="385" y="295" width="40" height="10" as="geometry" />
        </mxCell>
        <mxCell id="k-cLo1pYmpTZzjUPSEY7-18" style="rounded=0;orthogonalLoop=1;jettySize=auto;html=1;exitX=0.5;exitY=0.5;exitDx=0;exitDy=0;exitPerimeter=0;" parent="1" source="k-cLo1pYmpTZzjUPSEY7-17" target="k-cLo1pYmpTZzjUPSEY7-2" edge="1">
          <mxGeometry relative="1" as="geometry">
            <Array as="points">
              <mxPoint x="470" y="410" />
            </Array>
          </mxGeometry>
        </mxCell>
        <mxCell id="k-cLo1pYmpTZzjUPSEY7-20" style="rounded=0;orthogonalLoop=1;jettySize=auto;html=1;exitX=0.5;exitY=0.5;exitDx=0;exitDy=0;exitPerimeter=0;entryX=1;entryY=0.5;entryDx=0;entryDy=0;" parent="1" source="k-cLo1pYmpTZzjUPSEY7-17" target="k-cLo1pYmpTZzjUPSEY7-1" edge="1">
          <mxGeometry relative="1" as="geometry" />
        </mxCell>
        <mxCell id="k-cLo1pYmpTZzjUPSEY7-21" style="rounded=0;orthogonalLoop=1;jettySize=auto;html=1;exitX=0.5;exitY=0.5;exitDx=0;exitDy=0;exitPerimeter=0;entryX=0.958;entryY=0.669;entryDx=0;entryDy=0;entryPerimeter=0;" parent="1" source="k-cLo1pYmpTZzjUPSEY7-17" target="k-cLo1pYmpTZzjUPSEY7-4" edge="1">
          <mxGeometry relative="1" as="geometry">
            <mxPoint x="630" y="370" as="targetPoint" />
          </mxGeometry>
        </mxCell>
        <mxCell id="k-cLo1pYmpTZzjUPSEY7-22" style="rounded=0;orthogonalLoop=1;jettySize=auto;html=1;exitX=0.5;exitY=0.5;exitDx=0;exitDy=0;exitPerimeter=0;entryX=1;entryY=0.5;entryDx=0;entryDy=0;" parent="1" source="k-cLo1pYmpTZzjUPSEY7-17" target="k-cLo1pYmpTZzjUPSEY7-3" edge="1">
          <mxGeometry relative="1" as="geometry">
            <Array as="points">
              <mxPoint x="680" y="310" />
            </Array>
          </mxGeometry>
        </mxCell>
        <mxCell id="k-cLo1pYmpTZzjUPSEY7-23" style="rounded=0;orthogonalLoop=1;jettySize=auto;html=1;exitX=0.5;exitY=0.5;exitDx=0;exitDy=0;exitPerimeter=0;entryX=1;entryY=1;entryDx=0;entryDy=0;" parent="1" source="k-cLo1pYmpTZzjUPSEY7-17" target="k-cLo1pYmpTZzjUPSEY7-5" edge="1">
          <mxGeometry relative="1" as="geometry">
            <Array as="points" />
          </mxGeometry>
        </mxCell>
        <mxCell id="k-cLo1pYmpTZzjUPSEY7-17" value="Player" style="shape=umlActor;verticalLabelPosition=bottom;verticalAlign=top;html=1;" parent="1" vertex="1">
          <mxGeometry x="810" y="440" width="30" height="60" as="geometry" />
        </mxCell>
        <mxCell id="x44kjQfoDzhdQfu1jJms-18" value="Match Players Based on Experience Level" style="ellipse;whiteSpace=wrap;html=1;" vertex="1" parent="1">
          <mxGeometry x="230" y="490" width="180" height="60" as="geometry" />
        </mxCell>
        <mxCell id="x44kjQfoDzhdQfu1jJms-19" value="Adjust Matchmaking Based on Session Intensity" style="ellipse;whiteSpace=wrap;html=1;" vertex="1" parent="1">
          <mxGeometry x="180" y="720" width="180" height="60" as="geometry" />
        </mxCell>
        <mxCell id="x44kjQfoDzhdQfu1jJms-20" value="Handle Matchmaking for Highly Skilled Players" style="ellipse;whiteSpace=wrap;html=1;" vertex="1" parent="1">
          <mxGeometry x="150" y="580" width="220" height="60" as="geometry" />
        </mxCell>
        <mxCell id="x44kjQfoDzhdQfu1jJms-37" style="rounded=0;orthogonalLoop=1;jettySize=auto;html=1;exitX=0;exitY=1;exitDx=0;exitDy=0;entryX=1;entryY=0;entryDx=0;entryDy=0;dashed=1;" edge="1" parent="1" source="x44kjQfoDzhdQfu1jJms-21" target="x44kjQfoDzhdQfu1jJms-20">
          <mxGeometry relative="1" as="geometry" />
        </mxCell>
        <mxCell id="x44kjQfoDzhdQfu1jJms-39" style="rounded=0;orthogonalLoop=1;jettySize=auto;html=1;exitX=0.5;exitY=1;exitDx=0;exitDy=0;entryX=1;entryY=0;entryDx=0;entryDy=0;dashed=1;" edge="1" parent="1" source="x44kjQfoDzhdQfu1jJms-21" target="x44kjQfoDzhdQfu1jJms-19">
          <mxGeometry relative="1" as="geometry" />
        </mxCell>
        <mxCell id="x44kjQfoDzhdQfu1jJms-21" value="Alternative Matching Strategy (AI/Cross-region)" style="ellipse;whiteSpace=wrap;html=1;" vertex="1" parent="1">
          <mxGeometry x="470" y="500" width="200" height="60" as="geometry" />
        </mxCell>
        <mxCell id="x44kjQfoDzhdQfu1jJms-22" style="rounded=0;orthogonalLoop=1;jettySize=auto;html=1;exitX=0.5;exitY=0.5;exitDx=0;exitDy=0;exitPerimeter=0;entryX=0;entryY=0;entryDx=0;entryDy=0;" edge="1" parent="1" source="k-cLo1pYmpTZzjUPSEY7-6" target="x44kjQfoDzhdQfu1jJms-18">
          <mxGeometry relative="1" as="geometry">
            <mxPoint x="130" y="500" as="sourcePoint" />
          </mxGeometry>
        </mxCell>
        <mxCell id="x44kjQfoDzhdQfu1jJms-23" style="rounded=0;orthogonalLoop=1;jettySize=auto;html=1;exitX=0.5;exitY=0.5;exitDx=0;exitDy=0;exitPerimeter=0;" edge="1" parent="1" source="k-cLo1pYmpTZzjUPSEY7-6" target="x44kjQfoDzhdQfu1jJms-19">
          <mxGeometry relative="1" as="geometry">
            <Array as="points">
              <mxPoint x="70" y="600" />
            </Array>
            <mxPoint x="110" y="610" as="sourcePoint" />
          </mxGeometry>
        </mxCell>
        <mxCell id="x44kjQfoDzhdQfu1jJms-24" style="rounded=0;orthogonalLoop=1;jettySize=auto;html=1;exitX=0.5;exitY=0.5;exitDx=0;exitDy=0;exitPerimeter=0;" edge="1" parent="1" source="k-cLo1pYmpTZzjUPSEY7-6" target="x44kjQfoDzhdQfu1jJms-20">
          <mxGeometry relative="1" as="geometry">
            <mxPoint x="50" y="340" as="sourcePoint" />
          </mxGeometry>
        </mxCell>
        <mxCell id="x44kjQfoDzhdQfu1jJms-29" style="rounded=0;orthogonalLoop=1;jettySize=auto;html=1;exitX=0.5;exitY=0.5;exitDx=0;exitDy=0;exitPerimeter=0;entryX=1;entryY=0.5;entryDx=0;entryDy=0;" edge="1" parent="1" source="k-cLo1pYmpTZzjUPSEY7-17" target="x44kjQfoDzhdQfu1jJms-19">
          <mxGeometry relative="1" as="geometry">
            <mxPoint x="780" y="520" as="sourcePoint" />
          </mxGeometry>
        </mxCell>
        <mxCell id="x44kjQfoDzhdQfu1jJms-33" style="rounded=0;orthogonalLoop=1;jettySize=auto;html=1;entryX=1;entryY=0.5;entryDx=0;entryDy=0;exitX=0.5;exitY=0.5;exitDx=0;exitDy=0;exitPerimeter=0;" edge="1" parent="1" source="k-cLo1pYmpTZzjUPSEY7-17" target="x44kjQfoDzhdQfu1jJms-20">
          <mxGeometry relative="1" as="geometry">
            <Array as="points">
              <mxPoint x="630" y="560" />
            </Array>
          </mxGeometry>
        </mxCell>
        <mxCell id="x44kjQfoDzhdQfu1jJms-34" style="rounded=0;orthogonalLoop=1;jettySize=auto;html=1;entryX=1;entryY=0;entryDx=0;entryDy=0;" edge="1" parent="1" source="k-cLo1pYmpTZzjUPSEY7-17" target="x44kjQfoDzhdQfu1jJms-18">
          <mxGeometry relative="1" as="geometry">
            <Array as="points">
              <mxPoint x="600" y="470" />
            </Array>
          </mxGeometry>
        </mxCell>
        <mxCell id="x44kjQfoDzhdQfu1jJms-35" style="rounded=0;orthogonalLoop=1;jettySize=auto;html=1;exitX=0;exitY=0;exitDx=0;exitDy=0;entryX=1;entryY=0.5;entryDx=0;entryDy=0;dashed=1;" edge="1" parent="1" source="x44kjQfoDzhdQfu1jJms-21" target="x44kjQfoDzhdQfu1jJms-18">
          <mxGeometry relative="1" as="geometry">
            <mxPoint x="411" y="510" as="targetPoint" />
          </mxGeometry>
        </mxCell>
        <mxCell id="x44kjQfoDzhdQfu1jJms-36" value="&amp;lt;&amp;lt;extends&amp;gt;&amp;gt;" style="text;html=1;align=center;verticalAlign=middle;whiteSpace=wrap;rounded=0;rotation=-10;fontSize=7;" vertex="1" parent="1">
          <mxGeometry x="430" y="500" width="40" height="10" as="geometry" />
        </mxCell>
        <mxCell id="x44kjQfoDzhdQfu1jJms-38" value="&amp;lt;&amp;lt;extends&amp;gt;&amp;gt;" style="text;html=1;align=center;verticalAlign=middle;whiteSpace=wrap;rounded=0;rotation=-15;fontSize=7;" vertex="1" parent="1">
          <mxGeometry x="385" y="560" width="40" height="10" as="geometry" />
        </mxCell>
        <mxCell id="x44kjQfoDzhdQfu1jJms-40" value="&amp;lt;&amp;lt;extends&amp;gt;&amp;gt;" style="text;html=1;align=center;verticalAlign=middle;whiteSpace=wrap;rounded=0;rotation=-30;fontSize=7;" vertex="1" parent="1">
          <mxGeometry x="390" y="660" width="40" height="10" as="geometry" />
        </mxCell>
      </root>
    </mxGraphModel>
  </diagram>
</mxfile>
